<?xml version="1.0" encoding="utf-8"?>
<!-- Generator: Adobe Illustrator 17.1.0, SVG Export Plug-In . SVG Version: 6.00 Build 0)  -->
<!DOCTYPE svg PUBLIC "-//W3C//DTD SVG 1.1//EN" "http://www.w3.org/Graphics/SVG/1.1/DTD/svg11.dtd">
<svg version="1.1" id="Layer_1" xmlns="http://www.w3.org/2000/svg" xmlns:xlink="http://www.w3.org/1999/xlink" x="0px" y="0px"
	 viewBox="0 0 415.2 71.4" enable-background="new 0 0 415.2 71.4" xml:space="preserve">
<g>
	<path fill="#7B6E66" d="M217.5,62.1v8.7h-1v-8.7H217.5z"/>
	<path fill="#7B6E66" d="M222.2,70.9v-9.1l6.8,7.1v-6.8h1v9.1l-6.8-7.1v6.7C223.2,70.9,222.2,70.9,222.2,70.9z"/>
	<path fill="#7B6E66" d="M239.1,63.3l-0.8,0.5c-0.2-0.4-0.4-0.6-0.6-0.7c-0.2-0.1-0.5-0.2-0.8-0.2c-0.4,0-0.8,0.1-1.1,0.4
		c-0.3,0.2-0.4,0.6-0.4,0.9c0,0.5,0.3,0.9,1,1.2c0.7,0.3,1.3,0.7,2,1c0.7,0.5,1,1.1,1,1.9c0,0.8-0.3,1.4-0.8,1.9
		c-0.5,0.5-1.2,0.8-1.9,0.8c-0.7,0-1.3-0.2-1.8-0.6s-0.8-0.9-1-1.7l1-0.3c0.2,1.1,0.8,1.6,1.7,1.6c0.5,0,0.9-0.2,1.3-0.5
		c0.3-0.3,0.5-0.8,0.5-1.3c0-0.5-0.3-1-1-1.3c-0.7-0.4-1.3-0.7-2-1c-0.7-0.5-1-1-1-1.7c0-0.7,0.2-1.2,0.7-1.6s1.1-0.6,1.8-0.6
		C237.9,62,238.6,62.4,239.1,63.3z"/>
	<path fill="#7B6E66" d="M244.5,67v3.8h-1v-8.7h1.6c0.6,0,1,0,1.3,0.1s0.6,0.2,0.9,0.5s0.5,0.5,0.6,0.8c0.1,0.3,0.2,0.7,0.2,1
		c0,0.8-0.2,1.4-0.7,1.8c-0.5,0.4-1.2,0.7-2,0.7C245.4,67,244.5,67,244.5,67z M244.5,66.1h0.8c0.6,0,1.1-0.1,1.4-0.4
		s0.5-0.7,0.5-1.2c0-1-0.6-1.5-1.9-1.5h-0.7V66.1z"/>
	<path fill="#7B6E66" d="M252.9,62.1v8.7h-1v-8.7H252.9z"/>
	<path fill="#7B6E66" d="M259.8,67l2.8,3.9l-1.2,0l-2.6-3.8l-0.2,0v3.8h-1v-8.7h1.4c0.9,0,1.6,0.2,2.2,0.6c0.6,0.4,0.8,1,0.8,1.9
		c0,0.7-0.2,1.2-0.6,1.7C261.1,66.6,260.5,66.9,259.8,67z M258.5,66.2c0.8,0,1.4-0.1,1.9-0.3c0.4-0.2,0.6-0.6,0.6-1.4
		c0-0.6-0.2-1-0.7-1.2c-0.5-0.2-1.1-0.3-1.8-0.3L258.5,66.2L258.5,66.2z"/>
	<path fill="#7B6E66" d="M270.9,63.1h-3.5v2.6h3.4v0.9h-3.4V70h3.5v0.9h-4.5v-8.7h4.5V63.1z"/>
	<path fill="#7B6E66" d="M275.1,70.9v-8.7h1.8c1.5,0,2.6,0.4,3.5,1.2c0.8,0.8,1.2,1.9,1.2,3.2c0,1.3-0.4,2.4-1.2,3.1
		c-0.8,0.8-2,1.2-3.5,1.2L275.1,70.9L275.1,70.9z M276,70h0.9c1.1,0,2-0.3,2.6-0.9c0.7-0.6,1-1.5,1-2.5c0-1-0.3-1.9-1-2.5
		s-1.5-0.9-2.7-0.9H276L276,70L276,70z"/>
	<path fill="#7B6E66" d="M297.2,63.3l-0.8,0.5c-0.2-0.4-0.4-0.6-0.6-0.7c-0.2-0.1-0.5-0.2-0.8-0.2c-0.4,0-0.8,0.1-1.1,0.4
		c-0.3,0.2-0.4,0.6-0.4,0.9c0,0.5,0.3,0.9,1,1.2c0.7,0.3,1.3,0.7,2,1c0.7,0.5,1,1.1,1,1.9c0,0.8-0.3,1.4-0.8,1.9
		c-0.5,0.5-1.2,0.8-1.9,0.8c-0.7,0-1.3-0.2-1.8-0.6s-0.8-0.9-1-1.7l1-0.3c0.2,1.1,0.8,1.6,1.7,1.6c0.5,0,0.9-0.2,1.3-0.5
		c0.3-0.3,0.5-0.8,0.5-1.3c0-0.5-0.3-1-1-1.3s-1.3-0.7-2-1c-0.7-0.5-1-1-1-1.7c0-0.7,0.2-1.2,0.7-1.6c0.5-0.4,1.1-0.6,1.8-0.6
		C295.9,62,296.7,62.4,297.2,63.3z"/>
	<path fill="#7B6E66" d="M303.8,63.1v7.8h-1v-7.8h-2.1v-0.9h5.2v0.9L303.8,63.1L303.8,63.1z"/>
	<path fill="#7B6E66" d="M310.5,62.1v5.4c0,0.5,0,0.8,0.1,1.1s0.1,0.4,0.3,0.7c0.1,0.2,0.4,0.5,0.7,0.6c0.3,0.2,0.7,0.3,1.1,0.3
		c0.4,0,0.7-0.1,1.1-0.3c0.3-0.2,0.6-0.4,0.7-0.6c0.1-0.2,0.2-0.5,0.3-0.7c0-0.2,0.1-0.6,0.1-1v-5.4h1v5.6c0,0.9-0.2,1.5-0.5,2
		c-0.3,0.4-0.7,0.7-1.2,1c-0.5,0.2-0.9,0.3-1.4,0.3c-0.5,0-1-0.1-1.4-0.3c-0.5-0.2-0.8-0.5-1.1-0.8c-0.2-0.3-0.4-0.6-0.5-1
		s-0.1-0.7-0.1-1.2v-5.6H310.5z"/>
	<path fill="#7B6E66" d="M320.3,70.9v-8.7h1.8c1.5,0,2.6,0.4,3.5,1.2c0.8,0.8,1.2,1.9,1.2,3.2c0,1.3-0.4,2.4-1.2,3.1
		c-0.8,0.8-2,1.2-3.5,1.2L320.3,70.9L320.3,70.9z M321.3,70h0.9c1.1,0,2-0.3,2.6-0.9c0.7-0.6,1-1.5,1-2.5c0-1-0.3-1.9-1-2.5
		s-1.5-0.9-2.7-0.9h-0.9L321.3,70L321.3,70z"/>
	<path fill="#7B6E66" d="M335.5,63.1h-3.5v2.6h3.4v0.9h-3.4V70h3.5v0.9h-4.5v-8.7h4.5V63.1z"/>
	<path fill="#7B6E66" d="M339.6,70.9v-9.1l6.8,7.1v-6.8h1v9.1l-6.8-7.1v6.7C340.6,70.9,339.6,70.9,339.6,70.9z"/>
	<path fill="#7B6E66" d="M354,63.1v7.8h-1v-7.8h-2.1v-0.9h5.2v0.9L354,63.1L354,63.1z"/>
	<path fill="#7B6E66" d="M367.7,62.1V70h2.4v0.9h-3.4v-8.7H367.7z"/>
	<path fill="#7B6E66" d="M374.7,62.1v8.7h-1v-8.7H374.7z"/>
	<path fill="#7B6E66" d="M379.4,62.1l2.5,6.6l2.5-6.6l1,0l-3.5,9.2l-3.5-9.2L379.4,62.1z"/>
	<path fill="#7B6E66" d="M389.9,62.1v8.7h-1v-8.7H389.9z"/>
	<path fill="#7B6E66" d="M394.6,70.9v-9.1l6.8,7.1v-6.8h1v9.1l-6.8-7.1v6.7C395.6,70.9,394.6,70.9,394.6,70.9z"/>
	<path fill="#7B6E66" d="M411.4,66.5h3.6c0,0.6-0.1,1.2-0.2,1.6c-0.1,0.5-0.3,0.9-0.7,1.4c-0.4,0.4-0.8,0.8-1.4,1.1
		c-0.6,0.3-1.2,0.4-1.8,0.4c-1.3,0-2.4-0.4-3.3-1.3s-1.3-2-1.3-3.3c0-1.2,0.5-2.2,1.4-3.1c0.9-0.9,2-1.3,3.2-1.3
		c0.7,0,1.4,0.2,2,0.5c0.6,0.3,1.1,0.8,1.7,1.4l-0.7,0.6c-0.4-0.5-0.8-0.9-1.3-1.2c-0.5-0.3-1-0.4-1.6-0.4c-1,0-1.8,0.3-2.6,1
		s-1.1,1.5-1.1,2.5c0,1,0.3,1.9,1,2.6c0.7,0.7,1.5,1.1,2.5,1.1c0.5,0,1-0.1,1.5-0.4c0.5-0.3,0.8-0.6,1-0.9c0.2-0.3,0.3-0.6,0.4-0.7
		c0.1-0.2,0.1-0.4,0.1-0.6h-2.6L411.4,66.5L411.4,66.5z"/>
</g>
<circle fill="#FFFFFF" cx="24.9" cy="25.8" r="21.7"/>
<path fill="#7B6E66" d="M25.8,0C11.6,0,0,11.6,0,25.8s11.6,25.8,25.8,25.8s25.8-11.6,25.8-25.8S40.1,0,25.8,0z M36.9,38.2l-4.1-18.8
	l-7.1,19.2l-7.1-19.2l-4,18.8h-2.6L18.2,11l7.6,21l7.7-21l6,27.2H36.9z"/>
<g>
	<path fill="#A93439" d="M99.6,5l11.2,41.6h-8.7l-4.7-20.3l-9,20.5l-8.8-20.5L75,46.7h-8.7L77.5,5l11.3,25.2L99.6,5z"/>
	<path fill="#A93439" d="M126.6,6.7v40h-8.1v-40H126.6z"/>
	<path fill="#A93439" d="M145,6.7v32.8h15.7l-0.9,7.2h-22.9v-40H145z"/>
	<path fill="#A93439" d="M175.9,6.7v32.8h15.7l-0.9,7.2h-22.9v-40H175.9z"/>
	<path fill="#A93439" d="M222.7,6.7l0.8,7.2h-16.8v11.5h14.9l-0.8,6.9h-14.1v7.2h18.7l-1.2,7.2h-25.5v-40H222.7z"/>
	<path fill="#A93439" d="M264.7,6.7v41l-23.8-24l0.4,23.1h-8V5.6l23.8,24l-0.4-22.9H264.7z"/>
	<path fill="#A93439" d="M305.5,6.7v41l-23.8-24l0.4,23.1h-8V5.6l23.8,24l-0.4-22.9H305.5z"/>
	<path fill="#A93439" d="M324.1,6.7v40H316v-40H324.1z"/>
	<path fill="#A93439" d="M366.3,6.7v26.1c0,6.4-3.6,14.7-16,14.7c-13,0-16-8.4-16-14.7V6.7h8v25.9c0,4.9,3,7.7,8.1,7.7
		c4.6,0,7.8-2.7,7.8-7.7V6.7H366.3z"/>
	<path fill="#A93439" d="M404,5l11.2,41.6h-8.7l-4.7-20.3l-9,20.5L384,26.4l-4.6,20.3h-8.7L381.8,5l11.3,25.2L404,5z"/>
</g>
<g>
	<path fill="#7B6E66" d="M226.4,254.9v12.4H225v-12.4H226.4z"/>
	<path fill="#7B6E66" d="M233,267.3v-12.9l9.6,10.1v-9.6h1.4v12.9l-9.6-10.1v9.5H233z"/>
	<path fill="#7B6E66" d="M257,256.7l-1.1,0.7c-0.3-0.5-0.6-0.8-0.9-1s-0.7-0.3-1.1-0.3c-0.6,0-1.1,0.2-1.5,0.5s-0.6,0.8-0.6,1.3
		c0,0.7,0.5,1.3,1.4,1.8c1,0.5,1.9,1,2.8,1.4c1,0.7,1.5,1.6,1.5,2.6c0,1.1-0.4,2-1.1,2.7c-0.7,0.7-1.7,1.1-2.8,1.1
		c-1,0-1.8-0.3-2.5-0.8c-0.7-0.5-1.1-1.3-1.3-2.4l1.3-0.4c0.3,1.5,1.1,2.3,2.5,2.3c0.7,0,1.3-0.2,1.8-0.7c0.5-0.5,0.7-1.1,0.7-1.8
		c0-0.8-0.5-1.4-1.4-1.9s-1.9-1-2.8-1.4c-1-0.6-1.5-1.5-1.5-2.5c0-0.9,0.3-1.7,1-2.3s1.5-0.9,2.6-0.9
		C255.3,254.7,256.3,255.4,257,256.7z"/>
	<path fill="#7B6E66" d="M264.7,261.9v5.4h-1.4v-12.4h2.2c0.8,0,1.4,0.1,1.9,0.2s0.9,0.4,1.2,0.7c0.4,0.3,0.7,0.7,0.9,1.2
		c0.2,0.5,0.3,0.9,0.3,1.5c0,1.1-0.3,1.9-1,2.5c-0.7,0.6-1.7,0.9-2.9,0.9H264.7z M264.7,260.6h1.1c0.8,0,1.5-0.2,1.9-0.6
		c0.4-0.4,0.7-0.9,0.7-1.7c0-1.4-0.9-2.1-2.7-2.1h-1V260.6z"/>
	<path fill="#7B6E66" d="M276.5,254.9v12.4h-1.4v-12.4H276.5z"/>
	<path fill="#7B6E66" d="M286.4,261.8l3.9,5.5l-1.7,0l-3.7-5.4l-0.4,0v5.4h-1.4v-12.4h2c1.3,0,2.3,0.3,3.1,0.8
		c0.8,0.5,1.2,1.4,1.2,2.6c0,1-0.3,1.8-0.8,2.4S287.4,261.7,286.4,261.8z M284.6,260.7c1.2,0,2-0.1,2.7-0.4c0.6-0.3,0.9-0.9,0.9-1.9
		c0-0.9-0.3-1.5-1-1.7s-1.5-0.4-2.6-0.4V260.7z"/>
	<path fill="#7B6E66" d="M302.1,256.2h-5v3.6h4.9v1.3h-4.9v4.9h5v1.3h-6.4v-12.4h6.4V256.2z"/>
	<path fill="#7B6E66" d="M308,267.3v-12.4h2.5c2.1,0,3.7,0.6,4.9,1.7c1.2,1.1,1.8,2.6,1.8,4.5c0,1.8-0.6,3.3-1.8,4.5
		c-1.2,1.1-2.8,1.7-4.9,1.7H308z M309.4,266h1.2c1.5,0,2.8-0.4,3.7-1.3c1-0.9,1.5-2.1,1.5-3.6c0-1.5-0.5-2.7-1.4-3.6
		s-2.2-1.3-3.8-1.3h-1.2V266z"/>
	<path fill="#7B6E66" d="M339.4,256.7l-1.1,0.7c-0.3-0.5-0.6-0.8-0.9-1s-0.7-0.3-1.1-0.3c-0.6,0-1.1,0.2-1.5,0.5s-0.6,0.8-0.6,1.3
		c0,0.7,0.5,1.3,1.4,1.8c1,0.5,1.9,1,2.8,1.4c1,0.7,1.5,1.6,1.5,2.6c0,1.1-0.4,2-1.1,2.7c-0.7,0.7-1.7,1.1-2.8,1.1
		c-1,0-1.8-0.3-2.5-0.8c-0.7-0.5-1.1-1.3-1.3-2.4l1.3-0.4c0.3,1.5,1.1,2.3,2.5,2.3c0.7,0,1.3-0.2,1.8-0.7c0.5-0.5,0.7-1.1,0.7-1.8
		c0-0.8-0.5-1.4-1.4-1.9s-1.9-1-2.8-1.4c-1-0.6-1.5-1.5-1.5-2.5c0-0.9,0.3-1.7,1-2.3s1.5-0.9,2.6-0.9
		C337.6,254.7,338.6,255.4,339.4,256.7z"/>
	<path fill="#7B6E66" d="M348.7,256.2v11.1h-1.4v-11.1h-3v-1.3h7.4v1.3H348.7z"/>
	<path fill="#7B6E66" d="M358.2,254.9v7.6c0,0.7,0,1.2,0.1,1.5c0,0.3,0.2,0.6,0.4,1c0.2,0.3,0.6,0.6,1,0.9s1,0.4,1.5,0.4
		c0.5,0,1-0.1,1.5-0.4c0.5-0.2,0.8-0.5,1-0.9s0.3-0.7,0.4-1c0.1-0.3,0.1-0.8,0.1-1.5v-7.6h1.4v8c0,1.3-0.2,2.2-0.7,2.8
		s-1,1.1-1.7,1.4c-0.7,0.3-1.3,0.5-2,0.5c-0.7,0-1.4-0.2-2-0.5c-0.7-0.3-1.2-0.7-1.5-1.2c-0.3-0.5-0.6-0.9-0.7-1.3s-0.2-1-0.2-1.7
		v-8H358.2z"/>
	<path fill="#7B6E66" d="M372.2,267.3v-12.4h2.5c2.1,0,3.7,0.6,4.9,1.7c1.2,1.1,1.8,2.6,1.8,4.5c0,1.8-0.6,3.3-1.8,4.5
		c-1.2,1.1-2.8,1.7-4.9,1.7H372.2z M373.6,266h1.2c1.5,0,2.8-0.4,3.7-1.3c1-0.9,1.5-2.1,1.5-3.6c0-1.5-0.5-2.7-1.4-3.6
		s-2.2-1.3-3.8-1.3h-1.2V266z"/>
	<path fill="#7B6E66" d="M393.7,256.2h-5v3.6h4.9v1.3h-4.9v4.9h5v1.3h-6.4v-12.4h6.4V256.2z"/>
	<path fill="#7B6E66" d="M399.5,267.3v-12.9l9.6,10.1v-9.6h1.4v12.9l-9.6-10.1v9.5H399.5z"/>
	<path fill="#7B6E66" d="M420,256.2v11.1h-1.4v-11.1h-3v-1.3h7.4v1.3H420z"/>
	<path fill="#7B6E66" d="M439.4,254.9V266h3.4v1.3H438v-12.4H439.4z"/>
	<path fill="#7B6E66" d="M449.3,254.9v12.4h-1.4v-12.4H449.3z"/>
	<path fill="#7B6E66" d="M456,254.9l3.5,9.4l3.5-9.4l1.5,0l-5,13.1l-5-13.1L456,254.9z"/>
	<path fill="#7B6E66" d="M470.9,254.9v12.4h-1.4v-12.4H470.9z"/>
	<path fill="#7B6E66" d="M477.6,267.3v-12.9l9.6,10.1v-9.6h1.4v12.9l-9.6-10.1v9.5H477.6z"/>
	<path fill="#7B6E66" d="M501.4,261.1h5.2c0,0.9-0.1,1.7-0.2,2.3c-0.2,0.7-0.5,1.3-1,2s-1.2,1.1-2,1.5s-1.7,0.6-2.5,0.6
		c-1.8,0-3.4-0.6-4.6-1.9s-1.9-2.8-1.9-4.7c0-1.7,0.6-3.2,1.9-4.4c1.3-1.2,2.8-1.8,4.6-1.8c1,0,1.9,0.2,2.8,0.7
		c0.8,0.5,1.6,1.1,2.4,2l-1,0.9c-0.5-0.7-1.1-1.3-1.8-1.7c-0.7-0.4-1.5-0.6-2.3-0.6c-1.4,0-2.6,0.5-3.6,1.5c-1,1-1.5,2.1-1.5,3.5
		c0,1.5,0.5,2.7,1.4,3.7c1,1,2.2,1.5,3.6,1.5c0.8,0,1.5-0.2,2.2-0.6s1.2-0.8,1.5-1.3c0.3-0.5,0.5-0.8,0.5-1.1
		c0.1-0.2,0.1-0.5,0.1-0.9h-3.7V261.1z"/>
</g>
<path fill="#7B6E66" d="M-47.8,167.4c-19.1,0-34.6,15.5-34.6,34.6c0,19.1,15.5,34.6,34.6,34.6s34.6-15.5,34.6-34.6
	C-13.2,182.8-28.7,167.4-47.8,167.4z M-32.9,218.6l-5.4-25.2l-9.4,25.8l-9.5-25.8l-5.3,25.2h-3.5l8.2-36.5l10.2,28.1l10.3-28.1
	l8.1,36.5H-32.9z"/>
</svg>
